<svg xmlns="http://www.w3.org/2000/svg" width="1600" height="900" viewBox="0 0 1600 900">
  <defs>
    <linearGradient id="sky" x1="0" y1="0" x2="0" y2="1">
      <stop offset="0" stop-color="#2f5be0"/><stop offset="1" stop-color="#3D6BF5"/>
    </linearGradient>
    <linearGradient id="shade" x1="0" y1="0" x2="0" y2="1">
      <stop offset="0" stop-color="#000000" stop-opacity="0"/>
      <stop offset="1" stop-color="#000000" stop-opacity="0.34"/>
    </linearGradient>
  </defs>
  <rect width="1600" height="900" fill="url(#sky)"/>
  <circle cx="1320" cy="210" r="120" fill="#ffffff" opacity="0.12"/>
  <circle cx="1320" cy="210" r="120" fill="none" stroke="#ffffff" stroke-width="2" opacity="0.25"/>
  <path d="M60 512 L90 512 L75 442 Z" fill="#ffffff" opacity="0.10"/><path d="M190 520 L227 520 L208.5 424 Z" fill="#ffffff" opacity="0.10"/><path d="M284 528 L328 528 L306 406 Z" fill="#ffffff" opacity="0.10"/><path d="M414 512 L444 512 L429 364 Z" fill="#ffffff" opacity="0.10"/><path d="M508 520 L545 520 L526.5 450 Z" fill="#ffffff" opacity="0.10"/><path d="M638 528 L682 528 L660 432 Z" fill="#ffffff" opacity="0.10"/><path d="M732 512 L762 512 L747 390 Z" fill="#ffffff" opacity="0.10"/><path d="M862 520 L899 520 L880.5 372 Z" fill="#ffffff" opacity="0.10"/><path d="M956 528 L1000 528 L978 458 Z" fill="#ffffff" opacity="0.10"/><path d="M1086 512 L1116 512 L1101 416 Z" fill="#ffffff" opacity="0.10"/><path d="M1180 520 L1217 520 L1198.5 398 Z" fill="#ffffff" opacity="0.10"/><path d="M1310 528 L1354 528 L1332 380 Z" fill="#ffffff" opacity="0.10"/><path d="M1404 512 L1434 512 L1419 442 Z" fill="#ffffff" opacity="0.10"/><path d="M1534 520 L1571 520 L1552.5 424 Z" fill="#ffffff" opacity="0.10"/>
  <path d="M0 520 q 400 -40 800 0 t 800 0 L1600 900 L0 900 Z" fill="#1f49c8" opacity="0.30"/>
  <path d="M0 600 q 200 -22 400 0 t 400 0 t 400 0 t 400 0" stroke="#ffffff" stroke-width="3" fill="none" opacity="0.16"/><path d="M0 648 q 200 -22 400 0 t 400 0 t 400 0 t 400 0" stroke="#ffffff" stroke-width="3" fill="none" opacity="0.14"/><path d="M0 696 q 200 -22 400 0 t 400 0 t 400 0 t 400 0" stroke="#ffffff" stroke-width="3" fill="none" opacity="0.12"/><path d="M0 744 q 200 -22 400 0 t 400 0 t 400 0 t 400 0" stroke="#ffffff" stroke-width="3" fill="none" opacity="0.1"/><path d="M0 792 q 200 -22 400 0 t 400 0 t 400 0 t 400 0" stroke="#ffffff" stroke-width="3" fill="none" opacity="0.08"/><path d="M0 840 q 200 -22 400 0 t 400 0 t 400 0 t 400 0" stroke="#ffffff" stroke-width="3" fill="none" opacity="0.06"/>
  <!-- dock -->
  <g stroke="#ffffff" stroke-width="5" opacity="0.22" fill="none">
    <path d="M150 900 L300 660"/><path d="M250 900 L360 660"/>
    <path d="M300 660 L360 660"/><path d="M275 730 L335 730"/><path d="M235 800 L312 800"/>
  </g>
  <rect width="1600" height="900" fill="url(#shade)"/>
  <!-- house-mark -->
  <g transform="translate(72,66)" stroke="#ffffff" stroke-width="6" fill="none" stroke-linejoin="round" stroke-linecap="round" opacity="0.95">
    <path d="M0 40 L32 8 L64 40"/><path d="M10 36 L10 70 L54 70 L54 36"/><path d="M46 18 L46 6"/>
  </g>
  <!-- text -->
  <text x="800" y="380" text-anchor="middle" fill="#EAF1FE" font-family="'Poppins','Segoe UI',system-ui,sans-serif" font-size="32" font-weight="600" letter-spacing="7">CENTRAL LAKES</text>
  <text x="800" y="467.76" text-anchor="middle" fill="#FFFFFF" font-family="'Poppins','Segoe UI',system-ui,sans-serif" font-size="108" font-weight="800" letter-spacing="-1">Mille Lacs Lake</text>
  <rect x="751" y="507.76" width="98" height="48" rx="6" fill="#111111"/>
  <text x="800" y="540.76" text-anchor="middle" fill="#FFFFFF" font-family="'Poppins','Segoe UI',system-ui,sans-serif" font-size="22" font-weight="700" letter-spacing="3">LAKE</text>
  <!-- footer wordmark -->
  <text x="800" y="848" text-anchor="middle" fill="#FFFFFF" font-family="'Poppins','Segoe UI',system-ui,sans-serif" font-size="30" font-weight="700" opacity="0.92">MinnesotaLakeHomesForSale.com</text>
</svg>